<svg
  width="16"
  height="14"
  viewBox="0 0 16 14"
  fill="none"
  xmlns="http://www.w3.org/2000/svg"
>
  <path
    d="M7.70711 13.7071C7.31658 14.0976 6.68342 14.0976 6.29289 13.7071L0.292894 7.7071C0.105358 7.51957 5.88774e-07 7.26521 6.1196e-07 7C6.35145e-07 6.73478 0.105358 6.48043 0.292894 6.29289L6.29289 0.292893C6.68342 -0.0976323 7.31658 -0.0976322 7.70711 0.292893C8.09763 0.683417 8.09763 1.31658 7.70711 1.70711L3.41421 6L15 6C15.5523 6 16 6.44771 16 7C16 7.55228 15.5523 8 15 8L3.41421 8L7.70711 12.2929C8.09763 12.6834 8.09763 13.3166 7.70711 13.7071Z"
    fill="#6C7293"
  />
</svg>
