<svg width="14" height="16" viewBox="0 0 14 16" fill="none" xmlns="http://www.w3.org/2000/svg">
<path d="M0 2C0 2.02553 0.0102229 2.16958 0.292086 2.41948C0.572785 2.66834 1.03602 2.93815 1.69427 3.18499C3.0034 3.67591 4.87903 4 7 4C9.12097 4 10.9966 3.67591 12.3057 3.18499C12.964 2.93815 13.4272 2.66834 13.7079 2.41948C13.9898 2.16958 14 2.02553 14 2C14 1.97447 13.9898 1.83042 13.7079 1.58052C13.4272 1.33166 12.964 1.06185 12.3057 0.815009C10.9966 0.324086 9.12097 0 7 0C4.87903 0 3.0034 0.324086 1.69427 0.815009C1.03602 1.06185 0.572785 1.33166 0.292086 1.58052C0.0102229 1.83042 0 1.97447 0 2ZM0 6C0 6.02553 0.0102229 6.16958 0.292086 6.41948C0.572785 6.66834 1.03602 6.93815 1.69427 7.18499C3.0034 7.67591 4.87903 8 7 8C9.12097 8 10.9966 7.67591 12.3057 7.18499C12.964 6.93815 13.4272 6.66834 13.7079 6.41948C13.9898 6.16958 14 6.02553 14 6V4.61619C13.6909 4.77981 13.3574 4.92662 13.008 5.05765C11.4217 5.65251 9.29731 6 7 6C4.70269 6 2.57833 5.65251 0.992022 5.05765C0.642619 4.92662 0.309104 4.77981 0 4.61619V6ZM0 8.61619V10C0 10.0255 0.0102229 10.1696 0.292086 10.4195C0.572785 10.6683 1.03602 10.9381 1.69427 11.185C3.0034 11.6759 4.87903 12 7 12C9.12097 12 10.9966 11.6759 12.3057 11.185C12.964 10.9381 13.4272 10.6683 13.7079 10.4195C13.9898 10.1696 14 10.0255 14 10V8.61619C13.6909 8.77981 13.3574 8.92662 13.008 9.05765C11.4217 9.65251 9.29731 10 7 10C4.70269 10 2.57833 9.65251 0.992022 9.05765C0.642618 8.92662 0.309104 8.77981 0 8.61619ZM0 12.6162V14C0 14.0255 0.0102229 14.1696 0.292086 14.4195C0.572785 14.6683 1.03602 14.9381 1.69427 15.185C3.0034 15.6759 4.87903 16 7 16C9.12097 16 10.9966 15.6759 12.3057 15.185C12.964 14.9381 13.4272 14.6683 13.7079 14.4195C13.9898 14.1696 14 14.0255 14 14V12.6162C13.6909 12.7798 13.3574 12.9266 13.008 13.0576C11.4217 13.6525 9.29731 14 7 14C4.70269 14 2.57833 13.6525 0.992022 13.0576C0.642618 12.9266 0.309104 12.7798 0 12.6162Z" fill="#FAFAFA"/>
</svg>
