<svg
  width="18"
  height="18"
  viewBox="0 0 18 18"
  fill="none"
  xmlns="http://www.w3.org/2000/svg"
>
  <path
    d="M0 2C0 0.89543 0.895431 0 2 0H6H12H13.5858C14.1162 0 14.6249 0.210714 15 0.585786L17.7071 3.29289C17.8946 3.48043 18 3.73478 18 4V16C18 17.1046 17.1046 18 16 18H12H6H2C0.895431 18 0 17.1046 0 16V2ZM6 16H12V10H6V16ZM14 16H16V4.41421L14 2.41421V4C14 5.10457 13.1046 6 12 6H6C4.89543 6 4 5.10457 4 4V2H2V16H4V10C4 8.89543 4.89543 8 6 8H12C13.1046 8 14 8.89543 14 10V16ZM6 2V4H12V2H6Z"
    fill="#6C7293"
  />
</svg>
