<svg width="14" height="16" viewBox="0 0 14 16" fill="none" xmlns="http://www.w3.org/2000/svg">
<path d="M 0 2 C 0 2.0255 0.0102 2.1696 0.2921 2.4195 C 0.5728 2.6683 1.036 2.9381 1.6943 3.185 C 3.0034 3.6759 4.879 4 7 4 C 9.121 4 10.9966 3.6759 12.3057 3.185 C 12.964 2.9381 13.4272 2.6683 13.7079 2.4195 C 13.9898 2.1696 14 2.0255 14 2 C 14 1.9745 13.9898 1.8304 13.7079 1.5805 C 13.4272 1.3317 12.964 1.0618 12.3057 0.815 C 10.9966 0.3241 9.121 0 7 0 C 4.879 0 3.0034 0.3241 1.6943 0.815 C 1.036 1.0618 0.5728 1.3317 0.2921 1.5805 C 0.0102 1.8304 0 1.9745 0 2 Z M 0 6 C 0 6.0255 0.0102 6.1696 0.2921 6.4195 C 0.5728 6.6683 1.036 6.9382 1.6943 7.185 C 3.0034 7.6759 4.879 8 7 8 C 9.121 8 10.9966 7.6759 12.3057 7.185 C 12.964 6.9382 13.4272 6.6683 13.7079 6.4195 C 13.9898 6.1696 14 6.0255 14 6 V 4.6162 C 13.6909 4.7798 13.3574 4.9266 13.008 5.0576 C 11.4217 5.6525 9.2973 6 7 6 C 4.7027 6 2.5783 5.6525 0.992 5.0576 C 0.6426 4.9266 0.3091 4.7798 0 4.6162 V 6 Z M 0 8.6162 V 10 C 0 10.0255 0.0102 10.1696 0.2921 10.4195 C 0.5728 10.6683 1.036 10.9381 1.6943 11.185 C 3.0034 11.6759 4.879 12 7 12 C 9.121 12 10.9966 11.6759 12.3057 11.185 C 12.964 10.9381 13.4272 10.6683 13.7079 10.4195 C 13.9898 10.1696 14 10.0255 14 10 V 8.6162 C 13.6909 8.7798 13.3574 8.9266 13.008 9.0577 C 11.4217 9.6525 9.2973 10 7 10 C 4.7027 10 2.5783 9.6525 0.992 9.0577 C 0.6426 8.9266 0.3091 8.7798 0 8.6162" fill="#FAFAFA"/>
</svg>
