<svg
  width="16"
  height="14"
  viewBox="0 0 16 14"
  fill="none"
  xmlns="http://www.w3.org/2000/svg"
>
  <path
    d="M8.29289 0.292893C8.68342 -0.0976311 9.31658 -0.0976311 9.70711 0.292893L15.7071 6.29289C15.8946 6.48043 16 6.73478 16 7C16 7.26522 15.8946 7.51957 15.7071 7.70711L9.70711 13.7071C9.31658 14.0976 8.68342 14.0976 8.29289 13.7071C7.90237 13.3166 7.90237 12.6834 8.29289 12.2929L12.5858 8L1 8C0.447715 8 0 7.55229 0 7C0 6.44772 0.447715 6 1 6L12.5858 6L8.29289 1.70711C7.90237 1.31658 7.90237 0.683417 8.29289 0.292893Z"
    fill="#FAFAFA"
  />
</svg>
